<svg width="102" height="22" viewBox="0 0 102 22" fill="none" xmlns="http://www.w3.org/2000/svg">
<path d="M0 14.5575L3.73267 14.5681C4.10104 16.8748 5.92159 18.1625 9.6138 18.1625C12.6417 18.1625 14.8434 17.2702 14.8476 15.251C14.8476 13.5595 13.9001 12.8998 10.7892 12.7286L6.93301 12.5171C2.536 12.2634 0.0106465 10.6036 0.021293 6.60958C0.0319395 2.32587 3.56445 -0.0147308 9.08148 6.97642e-05C15.1777 0.0148703 18.1566 2.82486 18.7379 7.10857H15.0882C14.6688 4.8758 12.8035 3.67484 9.07083 3.66638C5.45101 3.65581 3.55168 4.68128 3.54529 6.7005C3.54529 8.26513 4.7015 8.92693 7.8039 9.10031L11.7431 9.35615C16.1827 9.56758 18.3759 11.3923 18.3652 15.3462C18.3546 19.4649 14.7816 21.8457 9.59677 21.833C3.79655 21.8182 0.445024 19.0484 0 14.5575Z" fill="white"/>
<path d="M40.9402 15.0333C39.7669 19.8498 36.0704 21.9007 31.6308 21.888C25.9903 21.8732 21.6018 18.4036 21.6231 10.536C21.6423 2.70861 25.5517 0.0423896 31.6883 0.0571901C37.825 0.0719907 41.5108 2.92427 41.4831 10.629V12.4833L25.2642 12.441C25.7646 16.1475 28.0728 18.2133 31.6415 18.2217C34.2946 18.2217 36.2898 17.1645 37.084 15.0227L40.9402 15.0333ZM25.277 9.06228L37.8867 9.094C37.6461 5.51015 35.7425 3.73408 31.6777 3.7235C27.6554 3.71293 25.5751 5.43826 25.277 9.06228Z" fill="white"/>
<path d="M46.4549 0.507481L53.3794 17.2892L60.4338 0.543425H64.209L55.4427 21.5285H51.4204L42.7627 0.499023L46.4549 0.507481Z" fill="white"/>
<path d="M84.789 15.1456C83.6136 19.9621 79.9171 22.013 75.4775 22.0003C69.837 21.9855 65.4485 18.5159 65.4698 10.6483C65.489 2.82514 69.3962 0.154694 75.535 0.169495C81.6738 0.184295 85.3596 3.03658 85.3298 10.7413V12.5956L69.1109 12.5533C69.5985 16.262 71.9173 18.3277 75.4839 18.3361C78.1392 18.3361 80.1322 17.279 80.9264 15.1371L84.789 15.1456ZM69.1237 9.17459L81.7334 9.20631C81.4949 5.62245 79.5914 3.84638 75.5265 3.83581C71.5021 3.82524 69.4154 5.55056 69.1237 9.17459Z" fill="white"/>
<path d="M101.994 4.31539H98.6763C95.2332 4.31539 93.2785 6.23735 93.27 9.65629L93.238 21.6426H89.7119L89.7673 0.634277H93.2891V3.10386C94.3282 1.45254 96.1914 0.634277 99.0532 0.634277H102L101.994 4.31539Z" fill="white"/>
</svg>
